<svg xmlns="http://www.w3.org/2000/svg" viewBox="0 0 425 425" height="85px" width="85px" xml:space="preserve"><linearGradient id="a" gradientUnits="userSpaceOnUse" x1="-998.648" y1="871.155" x2="1009.353" y2="-220.844"><stop offset="0" style="stop-color:#00c9ff"/><stop offset="1" style="stop-color:#3b72de"/></linearGradient><path fill="url(#a)" d="M323.907 165.435c-6.092-14.397-14.809-27.329-25.911-38.431-11.102-11.103-24.032-19.82-38.431-25.91-14.91-6.306-30.744-9.504-47.065-9.504-21.595 0-42.792 5.764-61.298 16.668a121.576 121.576 0 0 0-29.274 24.15c-.043.045-.082.094-.124.14a121.26 121.26 0 0 0-14.017 19.46 4.88 4.88 0 1 0 8.448 4.891 110.759 110.759 0 0 1 9.268-13.568l18.548 21.562a20.298 20.298 0 0 0-3.799 11.841c0 3.717 1.003 7.201 2.744 10.206l-40.809 39.18a111.516 111.516 0 0 1-.837-13.618c0-3.167.136-6.367.401-9.507a4.877 4.877 0 0 0-4.451-5.274 4.879 4.879 0 0 0-5.276 4.452 123.342 123.342 0 0 0-.436 10.329c0 16.321 3.198 32.155 9.504 47.065 6.091 14.398 14.808 27.329 25.91 38.431 11.102 11.103 24.033 19.819 38.431 25.91 14.91 6.306 30.746 9.504 47.066 9.504s32.154-3.198 47.065-9.504c14.398-6.091 27.329-14.808 38.431-25.91 11.103-11.102 19.819-24.032 25.911-38.431 6.305-14.91 9.503-30.744 9.503-47.065.001-16.322-3.197-32.157-9.502-47.067zm-.259 47.065c0 4.738-.3 9.409-.879 13.994l-12.064-16.872a18.415 18.415 0 0 0 4.156-11.671c0-10.203-8.301-18.504-18.503-18.504a18.41 18.41 0 0 0-10.254 3.109l-16.121-14.027a26.316 26.316 0 0 0 3.653-13.398A26.305 26.305 0 0 0 269 140.188l13.751-13.751c24.946 20.399 40.897 51.402 40.897 86.063zm-27.374 72.966-25.49-25.489a28.79 28.79 0 0 0 5.333-16.727 28.79 28.79 0 0 0-4.661-15.737l15.085-13.888a18.381 18.381 0 0 0 9.818 2.831 18.4 18.4 0 0 0 6.411-1.146l17.49 24.456c-4.345 17.164-12.691 32.749-23.986 45.7zm-68.318-42.216c0-10.586 8.613-19.198 19.199-19.198 10.587 0 19.199 8.612 19.199 19.198 0 10.587-8.612 19.198-19.199 19.198-10.586 0-19.199-8.611-19.199-19.198zm-55.726 19.034a14.62 14.62 0 0 0-6.674-4.867v-60.855a20.392 20.392 0 0 0 7.852-3.878l6.241 4.8a4.85 4.85 0 0 0 2.973 1.013 4.88 4.88 0 0 0 2.978-8.75l-6.235-4.796a20.297 20.297 0 0 0 1.732-8.219l-.001-.069 41.997-10.49c3.538 7.679 10.642 13.385 19.18 14.982v33.548a28.896 28.896 0 0 0-14.758 7.284l-1.75-1.347a4.883 4.883 0 0 0-5.952 7.739l1.743 1.34a28.776 28.776 0 0 0-3.362 13.531c0 1.397.102 2.771.293 4.116l-46.257 14.918zm-22.215-85.552c0-5.879 4.783-10.661 10.661-10.661 5.879 0 10.661 4.782 10.661 10.661s-4.782 10.662-10.661 10.662c-5.878.001-10.661-4.783-10.661-10.662zm5.857 94.407c0-2.649 2.154-4.805 4.804-4.805s4.805 2.155 4.805 4.805c0 2.649-2.155 4.804-4.805 4.804s-4.804-2.155-4.804-4.804zm140.487-64.446c-4.821 0-8.742-3.921-8.742-8.742 0-4.819 3.921-8.742 8.742-8.742 4.82 0 8.741 3.923 8.741 8.742.001 4.821-3.92 8.742-8.741 8.742zm-16.431-.248-15.086 13.889a28.84 28.84 0 0 0-12.805-5.631v-33.548a26.364 26.364 0 0 0 11.534-5.267l16.12 14.028a18.404 18.404 0 0 0-1.836 8.034c0 3.062.751 5.949 2.073 8.495zm-16.053-51.314c0 9.22-7.5 16.721-16.72 16.721-9.219 0-16.72-7.501-16.72-16.721 0-9.219 7.501-16.72 16.72-16.72 9.22 0 16.72 7.501 16.72 16.72zm10.977-34.598L262.1 133.284a26.33 26.33 0 0 0-14.944-4.635 26.332 26.332 0 0 0-14.944 4.635l-31.316-31.315c3.834-.406 7.706-.617 11.606-.617 23.091 0 44.558 7.082 62.35 19.181zm-85.845-16.648 36.302 36.303a26.316 26.316 0 0 0-4.584 16.515l-41.998 10.49c-3.432-6.468-10.234-10.885-18.051-10.885a20.3 20.3 0 0 0-9.227 2.213l-19.457-22.618c15.359-16.085 35.269-27.282 57.015-32.018zm-84.775 133.803 45.525-43.708a20.317 20.317 0 0 0 6.037 2.583v60.855c-5.637 2.011-9.685 7.402-9.685 13.722 0 2.236.507 4.355 1.412 6.251L133.9 291.012c-14.415-14.432-24.892-32.796-29.668-53.324zm114.444 85.786.52-1.236a4.881 4.881 0 0 0-8.996-3.789l-2.148 5.102c-25.426-1.006-48.682-10.591-66.948-25.938l13.321-13.32a14.481 14.481 0 0 0 6.251 1.411c7.887 0 14.324-6.3 14.555-14.131l46.26-14.918a29.17 29.17 0 0 0 10.094 11.003l-1.718 4.081a4.882 4.882 0 1 0 8.996 3.789l1.714-4.071a28.88 28.88 0 0 0 6.579.755c6.226 0 12-1.976 16.726-5.332l25.659 25.659c-18.607 17.916-43.425 29.424-70.865 30.935z"/><linearGradient id="b" gradientUnits="userSpaceOnUse" x1="-1038.387" y1="798.073" x2="969.608" y2="-293.923"><stop offset="0" style="stop-color:#00c9ff"/><stop offset="1" style="stop-color:#3b72de"/></linearGradient><path fill="url(#b)" d="M98.195 191.862a4.882 4.882 0 0 0 5.828-3.7 110.792 110.792 0 0 1 5.592-17.799 4.88 4.88 0 1 0-9.031-3.703 120.547 120.547 0 0 0-6.087 19.374 4.882 4.882 0 0 0 3.698 5.828z"/><linearGradient id="c" gradientUnits="userSpaceOnUse" x1="-1002.324" y1="864.389" x2="1005.673" y2="-227.608"><stop offset="0" style="stop-color:#00c9ff"/><stop offset="1" style="stop-color:#3b72de"/></linearGradient><path fill="url(#c)" d="m213.402 211.131-15.436-11.873a4.88 4.88 0 1 0-5.952 7.739l15.437 11.873a4.862 4.862 0 0 0 2.973 1.012 4.882 4.882 0 0 0 2.978-8.751z"/><linearGradient id="d" gradientUnits="userSpaceOnUse" x1="-960.453" y1="941.392" x2="1047.551" y2="-150.609"><stop offset="0" style="stop-color:#00c9ff"/><stop offset="1" style="stop-color:#3b72de"/></linearGradient><path fill="url(#d)" d="M230.227 283.461a4.881 4.881 0 0 0-6.393 2.605l-7.581 18.008a4.88 4.88 0 0 0 4.498 6.776 4.88 4.88 0 0 0 4.499-2.988l7.582-18.007a4.883 4.883 0 0 0-2.605-6.394z"/></svg>